<mxfile host="Electron" modified="2024-05-09T10:07:23.163Z" agent="Mozilla/5.0 (Windows NT 10.0; Win64; x64) AppleWebKit/537.36 (KHTML, like Gecko) draw.io/24.2.5 Chrome/120.0.6099.109 Electron/28.1.0 Safari/537.36" etag="wNjRJjddyOnwF4YcJ3UB" version="24.2.5" type="device">
  <diagram name="PÃ¡gina-1" id="9H_HlUz8WljchVSOBFbU">
    <mxGraphModel dx="1195" dy="1866" grid="1" gridSize="10" guides="1" tooltips="1" connect="1" arrows="1" fold="1" page="1" pageScale="1" pageWidth="827" pageHeight="1169" math="0" shadow="0">
      <root>
        <mxCell id="0" />
        <mxCell id="1" parent="0" />
        <mxCell id="73f0ywSW79-bqRwRfgl_-100" value="" style="rounded=0;whiteSpace=wrap;html=1;" parent="1" vertex="1">
          <mxGeometry x="480" y="-315.0042286340599" width="110" height="110" as="geometry" />
        </mxCell>
        <mxCell id="73f0ywSW79-bqRwRfgl_-101" value="" style="ellipse;whiteSpace=wrap;html=1;aspect=fixed;rotation=-135;" parent="1" vertex="1">
          <mxGeometry x="496" y="-300.0042286340599" width="80" height="80" as="geometry" />
        </mxCell>
        <mxCell id="73f0ywSW79-bqRwRfgl_-102" value="" style="group;rotation=-165;" parent="1" vertex="1" connectable="0">
          <mxGeometry x="512" y="-231.00422863405993" width="24" height="18" as="geometry" />
        </mxCell>
        <mxCell id="73f0ywSW79-bqRwRfgl_-103" value="" style="triangle;whiteSpace=wrap;html=1;rotation=-165;" parent="73f0ywSW79-bqRwRfgl_-102" vertex="1">
          <mxGeometry x="6" y="1" width="18" height="18" as="geometry" />
        </mxCell>
        <mxCell id="73f0ywSW79-bqRwRfgl_-104" value="" style="ellipse;whiteSpace=wrap;html=1;aspect=fixed;rotation=-165;" parent="73f0ywSW79-bqRwRfgl_-102" vertex="1">
          <mxGeometry x="1" y="5" width="6" height="6" as="geometry" />
        </mxCell>
        <mxCell id="73f0ywSW79-bqRwRfgl_-105" value="" style="triangle;whiteSpace=wrap;html=1;rotation=-45;" parent="1" vertex="1">
          <mxGeometry x="495" y="-293.0042286340599" width="18" height="18" as="geometry" />
        </mxCell>
        <mxCell id="73f0ywSW79-bqRwRfgl_-106" value="" style="ellipse;whiteSpace=wrap;html=1;aspect=fixed;rotation=-186;" parent="1" vertex="1">
          <mxGeometry x="510" y="-296.0042286340599" width="6" height="6" as="geometry" />
        </mxCell>
        <mxCell id="73f0ywSW79-bqRwRfgl_-107" value="" style="group;rotation=-285;" parent="1" vertex="1" connectable="0">
          <mxGeometry x="561" y="-279.0042286340599" width="24" height="18" as="geometry" />
        </mxCell>
        <mxCell id="73f0ywSW79-bqRwRfgl_-108" value="" style="triangle;whiteSpace=wrap;html=1;rotation=-285;" parent="73f0ywSW79-bqRwRfgl_-107" vertex="1">
          <mxGeometry x="3" y="-3" width="18" height="18" as="geometry" />
        </mxCell>
        <mxCell id="73f0ywSW79-bqRwRfgl_-109" value="" style="ellipse;whiteSpace=wrap;html=1;aspect=fixed;rotation=-285;" parent="73f0ywSW79-bqRwRfgl_-107" vertex="1">
          <mxGeometry x="12" y="15" width="6" height="6" as="geometry" />
        </mxCell>
        <mxCell id="73f0ywSW79-bqRwRfgl_-110" value="&lt;font style=&quot;font-size: 14px;&quot;&gt;Differential&amp;nbsp; oscillator 1&lt;/font&gt;" style="text;html=1;align=center;verticalAlign=middle;whiteSpace=wrap;rounded=0;" parent="1" vertex="1">
          <mxGeometry x="492" y="-350" width="84" height="30" as="geometry" />
        </mxCell>
        <mxCell id="73f0ywSW79-bqRwRfgl_-130" value="K = 1" style="text;html=1;align=center;verticalAlign=middle;whiteSpace=wrap;rounded=0;" parent="1" vertex="1">
          <mxGeometry x="506" y="-274.9999999999999" width="60" height="30" as="geometry" />
        </mxCell>
        <mxCell id="73f0ywSW79-bqRwRfgl_-131" value="" style="rounded=0;whiteSpace=wrap;html=1;" parent="1" vertex="1">
          <mxGeometry x="480" y="-155.00422863405993" width="110" height="110" as="geometry" />
        </mxCell>
        <mxCell id="73f0ywSW79-bqRwRfgl_-132" value="" style="ellipse;whiteSpace=wrap;html=1;aspect=fixed;rotation=-135;" parent="1" vertex="1">
          <mxGeometry x="496" y="-140.00422863405993" width="80" height="80" as="geometry" />
        </mxCell>
        <mxCell id="73f0ywSW79-bqRwRfgl_-133" value="" style="group;rotation=-165;" parent="1" vertex="1" connectable="0">
          <mxGeometry x="512" y="-71.00422863405993" width="24" height="18" as="geometry" />
        </mxCell>
        <mxCell id="73f0ywSW79-bqRwRfgl_-134" value="" style="triangle;whiteSpace=wrap;html=1;rotation=-165;" parent="73f0ywSW79-bqRwRfgl_-133" vertex="1">
          <mxGeometry x="6" y="1" width="18" height="18" as="geometry" />
        </mxCell>
        <mxCell id="73f0ywSW79-bqRwRfgl_-135" value="" style="ellipse;whiteSpace=wrap;html=1;aspect=fixed;rotation=-165;" parent="73f0ywSW79-bqRwRfgl_-133" vertex="1">
          <mxGeometry x="1" y="5" width="6" height="6" as="geometry" />
        </mxCell>
        <mxCell id="73f0ywSW79-bqRwRfgl_-136" value="" style="triangle;whiteSpace=wrap;html=1;rotation=-45;" parent="1" vertex="1">
          <mxGeometry x="495" y="-133.00422863405993" width="18" height="18" as="geometry" />
        </mxCell>
        <mxCell id="73f0ywSW79-bqRwRfgl_-137" value="" style="ellipse;whiteSpace=wrap;html=1;aspect=fixed;rotation=-186;" parent="1" vertex="1">
          <mxGeometry x="510" y="-136.00422863405993" width="6" height="6" as="geometry" />
        </mxCell>
        <mxCell id="73f0ywSW79-bqRwRfgl_-138" value="" style="group;rotation=-285;" parent="1" vertex="1" connectable="0">
          <mxGeometry x="561" y="-119.00422863405993" width="24" height="18" as="geometry" />
        </mxCell>
        <mxCell id="73f0ywSW79-bqRwRfgl_-139" value="" style="triangle;whiteSpace=wrap;html=1;rotation=-285;" parent="73f0ywSW79-bqRwRfgl_-138" vertex="1">
          <mxGeometry x="3" y="-3" width="18" height="18" as="geometry" />
        </mxCell>
        <mxCell id="73f0ywSW79-bqRwRfgl_-140" value="" style="ellipse;whiteSpace=wrap;html=1;aspect=fixed;rotation=-285;" parent="73f0ywSW79-bqRwRfgl_-138" vertex="1">
          <mxGeometry x="12" y="15" width="6" height="6" as="geometry" />
        </mxCell>
        <mxCell id="73f0ywSW79-bqRwRfgl_-141" value="&lt;font style=&quot;font-size: 14px;&quot;&gt;Differential&amp;nbsp; oscillator 2&lt;/font&gt;" style="text;html=1;align=center;verticalAlign=middle;whiteSpace=wrap;rounded=0;" parent="1" vertex="1">
          <mxGeometry x="492" y="-190" width="84" height="30" as="geometry" />
        </mxCell>
        <mxCell id="73f0ywSW79-bqRwRfgl_-142" value="K = 2" style="text;html=1;align=center;verticalAlign=middle;whiteSpace=wrap;rounded=0;" parent="1" vertex="1">
          <mxGeometry x="506" y="-114.99999999999991" width="60" height="30" as="geometry" />
        </mxCell>
        <mxCell id="73f0ywSW79-bqRwRfgl_-143" value="" style="rounded=0;whiteSpace=wrap;html=1;" parent="1" vertex="1">
          <mxGeometry x="480" y="4.995771365940072" width="110" height="110" as="geometry" />
        </mxCell>
        <mxCell id="73f0ywSW79-bqRwRfgl_-144" value="" style="ellipse;whiteSpace=wrap;html=1;aspect=fixed;rotation=-135;" parent="1" vertex="1">
          <mxGeometry x="496" y="19.995771365940072" width="80" height="80" as="geometry" />
        </mxCell>
        <mxCell id="73f0ywSW79-bqRwRfgl_-145" value="" style="group;rotation=-165;" parent="1" vertex="1" connectable="0">
          <mxGeometry x="512" y="88.99577136594007" width="24" height="18" as="geometry" />
        </mxCell>
        <mxCell id="73f0ywSW79-bqRwRfgl_-146" value="" style="triangle;whiteSpace=wrap;html=1;rotation=-165;" parent="73f0ywSW79-bqRwRfgl_-145" vertex="1">
          <mxGeometry x="6" y="1" width="18" height="18" as="geometry" />
        </mxCell>
        <mxCell id="73f0ywSW79-bqRwRfgl_-147" value="" style="ellipse;whiteSpace=wrap;html=1;aspect=fixed;rotation=-165;" parent="73f0ywSW79-bqRwRfgl_-145" vertex="1">
          <mxGeometry x="1" y="5" width="6" height="6" as="geometry" />
        </mxCell>
        <mxCell id="73f0ywSW79-bqRwRfgl_-148" value="" style="triangle;whiteSpace=wrap;html=1;rotation=-45;" parent="1" vertex="1">
          <mxGeometry x="495" y="26.995771365940072" width="18" height="18" as="geometry" />
        </mxCell>
        <mxCell id="73f0ywSW79-bqRwRfgl_-149" value="" style="ellipse;whiteSpace=wrap;html=1;aspect=fixed;rotation=-186;" parent="1" vertex="1">
          <mxGeometry x="510" y="23.995771365940072" width="6" height="6" as="geometry" />
        </mxCell>
        <mxCell id="73f0ywSW79-bqRwRfgl_-150" value="" style="group;rotation=-285;" parent="1" vertex="1" connectable="0">
          <mxGeometry x="561" y="40.99577136594007" width="24" height="18" as="geometry" />
        </mxCell>
        <mxCell id="73f0ywSW79-bqRwRfgl_-151" value="" style="triangle;whiteSpace=wrap;html=1;rotation=-285;" parent="73f0ywSW79-bqRwRfgl_-150" vertex="1">
          <mxGeometry x="3" y="-3" width="18" height="18" as="geometry" />
        </mxCell>
        <mxCell id="73f0ywSW79-bqRwRfgl_-152" value="" style="ellipse;whiteSpace=wrap;html=1;aspect=fixed;rotation=-285;" parent="73f0ywSW79-bqRwRfgl_-150" vertex="1">
          <mxGeometry x="12" y="15" width="6" height="6" as="geometry" />
        </mxCell>
        <mxCell id="73f0ywSW79-bqRwRfgl_-153" value="&lt;font style=&quot;font-size: 14px;&quot;&gt;Differential&amp;nbsp; oscillator 3&lt;/font&gt;" style="text;html=1;align=center;verticalAlign=middle;whiteSpace=wrap;rounded=0;" parent="1" vertex="1">
          <mxGeometry x="496" y="-30" width="74" height="30" as="geometry" />
        </mxCell>
        <mxCell id="73f0ywSW79-bqRwRfgl_-154" value="K = 4" style="text;html=1;align=center;verticalAlign=middle;whiteSpace=wrap;rounded=0;" parent="1" vertex="1">
          <mxGeometry x="506" y="45.000000000000085" width="60" height="30" as="geometry" />
        </mxCell>
        <mxCell id="73f0ywSW79-bqRwRfgl_-155" value="&lt;font style=&quot;font-size: 14px;&quot;&gt;Frequency to digital + Noise shaper&lt;/font&gt;" style="rounded=0;whiteSpace=wrap;html=1;" parent="1" vertex="1">
          <mxGeometry x="680" y="-287.5" width="130" height="55" as="geometry" />
        </mxCell>
        <mxCell id="73f0ywSW79-bqRwRfgl_-157" value="" style="endArrow=classic;html=1;rounded=0;exitX=1;exitY=0.5;exitDx=0;exitDy=0;entryX=0;entryY=0.5;entryDx=0;entryDy=0;" parent="1" source="73f0ywSW79-bqRwRfgl_-100" target="73f0ywSW79-bqRwRfgl_-155" edge="1">
          <mxGeometry width="50" height="50" relative="1" as="geometry">
            <mxPoint x="590" y="-150" as="sourcePoint" />
            <mxPoint x="640" y="-200" as="targetPoint" />
          </mxGeometry>
        </mxCell>
        <mxCell id="73f0ywSW79-bqRwRfgl_-162" value="" style="triangle;whiteSpace=wrap;html=1;" parent="1" vertex="1">
          <mxGeometry x="880" y="-285" width="60" height="50" as="geometry" />
        </mxCell>
        <mxCell id="73f0ywSW79-bqRwRfgl_-163" value="" style="endArrow=classic;html=1;rounded=0;exitX=1;exitY=0.5;exitDx=0;exitDy=0;entryX=0;entryY=0.5;entryDx=0;entryDy=0;" parent="1" source="73f0ywSW79-bqRwRfgl_-155" target="73f0ywSW79-bqRwRfgl_-162" edge="1">
          <mxGeometry width="50" height="50" relative="1" as="geometry">
            <mxPoint x="850" y="-155" as="sourcePoint" />
            <mxPoint x="900" y="-205" as="targetPoint" />
          </mxGeometry>
        </mxCell>
        <mxCell id="73f0ywSW79-bqRwRfgl_-164" value="&lt;font style=&quot;font-size: 14px;&quot;&gt;4&lt;/font&gt;" style="text;html=1;align=center;verticalAlign=middle;whiteSpace=wrap;rounded=0;" parent="1" vertex="1">
          <mxGeometry x="870" y="-275" width="60" height="30" as="geometry" />
        </mxCell>
        <mxCell id="73f0ywSW79-bqRwRfgl_-167" value="" style="triangle;whiteSpace=wrap;html=1;" parent="1" vertex="1">
          <mxGeometry x="880" y="-125" width="60" height="50" as="geometry" />
        </mxCell>
        <mxCell id="73f0ywSW79-bqRwRfgl_-169" value="&lt;font style=&quot;font-size: 14px;&quot;&gt;2&lt;/font&gt;" style="text;html=1;align=center;verticalAlign=middle;whiteSpace=wrap;rounded=0;" parent="1" vertex="1">
          <mxGeometry x="870" y="-115" width="60" height="30" as="geometry" />
        </mxCell>
        <mxCell id="73f0ywSW79-bqRwRfgl_-170" value="" style="triangle;whiteSpace=wrap;html=1;" parent="1" vertex="1">
          <mxGeometry x="880" y="39" width="60" height="50" as="geometry" />
        </mxCell>
        <mxCell id="73f0ywSW79-bqRwRfgl_-172" value="&lt;font style=&quot;font-size: 14px;&quot;&gt;1&lt;/font&gt;" style="text;html=1;align=center;verticalAlign=middle;whiteSpace=wrap;rounded=0;" parent="1" vertex="1">
          <mxGeometry x="870" y="49" width="60" height="30" as="geometry" />
        </mxCell>
        <mxCell id="4Yr71cIfXQSUv62_YKkP-2" value="&lt;h1 id=&quot;gen-h1-1-00000001&quot; class=&quot;navigable-headline&quot;&gt;&lt;span style=&quot;font-weight: 400;&quot;&gt;x&lt;/span&gt;&lt;/h1&gt;" style="ellipse;whiteSpace=wrap;html=1;aspect=fixed;" vertex="1" parent="1">
          <mxGeometry x="1050" y="-115" width="30" height="30" as="geometry" />
        </mxCell>
        <mxCell id="4Yr71cIfXQSUv62_YKkP-4" value="" style="endArrow=classic;html=1;rounded=0;exitX=1;exitY=0.5;exitDx=0;exitDy=0;entryX=0;entryY=0.5;entryDx=0;entryDy=0;" edge="1" parent="1" source="73f0ywSW79-bqRwRfgl_-162">
          <mxGeometry width="50" height="50" relative="1" as="geometry">
            <mxPoint x="940" y="-90" as="sourcePoint" />
            <mxPoint x="1050" y="-260" as="targetPoint" />
          </mxGeometry>
        </mxCell>
        <mxCell id="4Yr71cIfXQSUv62_YKkP-5" value="" style="endArrow=classic;html=1;rounded=0;entryX=0.5;entryY=0;entryDx=0;entryDy=0;" edge="1" parent="1">
          <mxGeometry width="50" height="50" relative="1" as="geometry">
            <mxPoint x="995" y="-331" as="sourcePoint" />
            <mxPoint x="1065" y="-276" as="targetPoint" />
            <Array as="points">
              <mxPoint x="1065" y="-331" />
            </Array>
          </mxGeometry>
        </mxCell>
        <mxCell id="4Yr71cIfXQSUv62_YKkP-9" value="" style="endArrow=classic;html=1;rounded=0;entryX=0.5;entryY=0;entryDx=0;entryDy=0;" edge="1" parent="1">
          <mxGeometry width="50" height="50" relative="1" as="geometry">
            <mxPoint x="995" y="-171" as="sourcePoint" />
            <mxPoint x="1065" y="-116" as="targetPoint" />
            <Array as="points">
              <mxPoint x="1065" y="-171" />
            </Array>
          </mxGeometry>
        </mxCell>
        <mxCell id="4Yr71cIfXQSUv62_YKkP-11" value="" style="endArrow=classic;html=1;rounded=0;entryX=0.5;entryY=0;entryDx=0;entryDy=0;" edge="1" parent="1">
          <mxGeometry width="50" height="50" relative="1" as="geometry">
            <mxPoint x="995" y="-6" as="sourcePoint" />
            <mxPoint x="1065" y="49" as="targetPoint" />
            <Array as="points">
              <mxPoint x="1065" y="-6" />
            </Array>
          </mxGeometry>
        </mxCell>
        <mxCell id="4Yr71cIfXQSUv62_YKkP-12" value="&lt;h1 style=&quot;text-align: center;&quot; class=&quot;navigable-headline&quot; id=&quot;gen-h1-1-00000001&quot;&gt;&lt;span style=&quot;font-weight: normal;&quot;&gt;Î´&lt;/span&gt;&lt;/h1&gt;" style="text;whiteSpace=wrap;html=1;" vertex="1" parent="1">
          <mxGeometry x="973" y="-43" width="20" height="40" as="geometry" />
        </mxCell>
        <mxCell id="4Yr71cIfXQSUv62_YKkP-13" value="" style="endArrow=classic;html=1;rounded=0;exitX=1;exitY=0.5;exitDx=0;exitDy=0;entryX=0;entryY=0.5;entryDx=0;entryDy=0;" edge="1" parent="1">
          <mxGeometry width="50" height="50" relative="1" as="geometry">
            <mxPoint x="941" y="-100.5" as="sourcePoint" />
            <mxPoint x="1051" y="-100.5" as="targetPoint" />
          </mxGeometry>
        </mxCell>
        <mxCell id="4Yr71cIfXQSUv62_YKkP-14" value="" style="endArrow=classic;html=1;rounded=0;exitX=1;exitY=0.5;exitDx=0;exitDy=0;entryX=0;entryY=0.5;entryDx=0;entryDy=0;" edge="1" parent="1">
          <mxGeometry width="50" height="50" relative="1" as="geometry">
            <mxPoint x="940" y="64.5" as="sourcePoint" />
            <mxPoint x="1050" y="64.5" as="targetPoint" />
          </mxGeometry>
        </mxCell>
        <mxCell id="4Yr71cIfXQSUv62_YKkP-18" value="" style="endArrow=classic;html=1;rounded=0;exitX=1;exitY=0.5;exitDx=0;exitDy=0;entryX=0.5;entryY=0;entryDx=0;entryDy=0;" edge="1" parent="1" source="4Yr71cIfXQSUv62_YKkP-32" target="4Yr71cIfXQSUv62_YKkP-33">
          <mxGeometry width="50" height="50" relative="1" as="geometry">
            <mxPoint x="1100" y="-260" as="sourcePoint" />
            <mxPoint x="1211" y="-125" as="targetPoint" />
            <Array as="points">
              <mxPoint x="1215" y="-260" />
            </Array>
          </mxGeometry>
        </mxCell>
        <mxCell id="4Yr71cIfXQSUv62_YKkP-19" value="" style="endArrow=classic;html=1;rounded=0;entryX=0.5;entryY=1;entryDx=0;entryDy=0;exitX=1;exitY=0.5;exitDx=0;exitDy=0;" edge="1" parent="1" source="4Yr71cIfXQSUv62_YKkP-31">
          <mxGeometry width="50" height="50" relative="1" as="geometry">
            <mxPoint x="1104" y="57.5" as="sourcePoint" />
            <mxPoint x="1215" y="-82.5" as="targetPoint" />
            <Array as="points">
              <mxPoint x="1215" y="64" />
            </Array>
          </mxGeometry>
        </mxCell>
        <mxCell id="4Yr71cIfXQSUv62_YKkP-20" value="" style="endArrow=classic;html=1;rounded=0;" edge="1" parent="1">
          <mxGeometry width="50" height="50" relative="1" as="geometry">
            <mxPoint x="1230" y="-98.92" as="sourcePoint" />
            <mxPoint x="1284" y="-98.92" as="targetPoint" />
          </mxGeometry>
        </mxCell>
        <mxCell id="4Yr71cIfXQSUv62_YKkP-23" value="&lt;h1 style=&quot;text-align: center;&quot; class=&quot;navigable-headline&quot; id=&quot;gen-h1-1-00000001&quot;&gt;&lt;span style=&quot;font-weight: normal;&quot; class=&quot;code char&quot;&gt;Î²&lt;/span&gt;&lt;/h1&gt;" style="text;whiteSpace=wrap;html=1;" vertex="1" parent="1">
          <mxGeometry x="971" y="-209" width="20" height="40" as="geometry" />
        </mxCell>
        <mxCell id="4Yr71cIfXQSUv62_YKkP-24" value="&lt;h1 id=&quot;gen-h1-1-00000001&quot; class=&quot;navigable-headline&quot;&gt;&lt;span style=&quot;font-weight: normal;&quot; class=&quot;code char&quot;&gt;Î±&lt;/span&gt;&lt;/h1&gt;" style="text;whiteSpace=wrap;html=1;" vertex="1" parent="1">
          <mxGeometry x="971" y="-371" width="20" height="40" as="geometry" />
        </mxCell>
        <mxCell id="4Yr71cIfXQSUv62_YKkP-25" value="&lt;font style=&quot;font-size: 14px;&quot;&gt;Frequency to digital + Noise shaper&lt;/font&gt;" style="rounded=0;whiteSpace=wrap;html=1;" vertex="1" parent="1">
          <mxGeometry x="680" y="-126" width="130" height="55" as="geometry" />
        </mxCell>
        <mxCell id="4Yr71cIfXQSUv62_YKkP-26" value="" style="endArrow=classic;html=1;rounded=0;exitX=1;exitY=0.5;exitDx=0;exitDy=0;entryX=0;entryY=0.5;entryDx=0;entryDy=0;" edge="1" parent="1" target="4Yr71cIfXQSUv62_YKkP-25">
          <mxGeometry width="50" height="50" relative="1" as="geometry">
            <mxPoint x="590" y="-98.5" as="sourcePoint" />
            <mxPoint x="640" y="-38.5" as="targetPoint" />
          </mxGeometry>
        </mxCell>
        <mxCell id="4Yr71cIfXQSUv62_YKkP-27" value="" style="endArrow=classic;html=1;rounded=0;exitX=1;exitY=0.5;exitDx=0;exitDy=0;entryX=0;entryY=0.5;entryDx=0;entryDy=0;" edge="1" parent="1" source="4Yr71cIfXQSUv62_YKkP-25">
          <mxGeometry width="50" height="50" relative="1" as="geometry">
            <mxPoint x="850" y="6.5" as="sourcePoint" />
            <mxPoint x="880" y="-98.5" as="targetPoint" />
          </mxGeometry>
        </mxCell>
        <mxCell id="4Yr71cIfXQSUv62_YKkP-28" value="&lt;font style=&quot;font-size: 14px;&quot;&gt;Frequency to digital + Noise shaper&lt;/font&gt;" style="rounded=0;whiteSpace=wrap;html=1;" vertex="1" parent="1">
          <mxGeometry x="680" y="35" width="130" height="55" as="geometry" />
        </mxCell>
        <mxCell id="4Yr71cIfXQSUv62_YKkP-29" value="" style="endArrow=classic;html=1;rounded=0;exitX=1;exitY=0.5;exitDx=0;exitDy=0;entryX=0;entryY=0.5;entryDx=0;entryDy=0;" edge="1" parent="1" target="4Yr71cIfXQSUv62_YKkP-28">
          <mxGeometry width="50" height="50" relative="1" as="geometry">
            <mxPoint x="590" y="62.5" as="sourcePoint" />
            <mxPoint x="640" y="122.5" as="targetPoint" />
          </mxGeometry>
        </mxCell>
        <mxCell id="4Yr71cIfXQSUv62_YKkP-30" value="" style="endArrow=classic;html=1;rounded=0;exitX=1;exitY=0.5;exitDx=0;exitDy=0;entryX=0;entryY=0.5;entryDx=0;entryDy=0;" edge="1" parent="1" source="4Yr71cIfXQSUv62_YKkP-28">
          <mxGeometry width="50" height="50" relative="1" as="geometry">
            <mxPoint x="850" y="167.5" as="sourcePoint" />
            <mxPoint x="880" y="62.5" as="targetPoint" />
          </mxGeometry>
        </mxCell>
        <mxCell id="4Yr71cIfXQSUv62_YKkP-31" value="&lt;h1 id=&quot;gen-h1-1-00000001&quot; class=&quot;navigable-headline&quot;&gt;&lt;span style=&quot;font-weight: 400;&quot;&gt;x&lt;/span&gt;&lt;/h1&gt;" style="ellipse;whiteSpace=wrap;html=1;aspect=fixed;" vertex="1" parent="1">
          <mxGeometry x="1050" y="49" width="30" height="30" as="geometry" />
        </mxCell>
        <mxCell id="4Yr71cIfXQSUv62_YKkP-32" value="&lt;h1 id=&quot;gen-h1-1-00000001&quot; class=&quot;navigable-headline&quot;&gt;&lt;span style=&quot;font-weight: 400;&quot;&gt;x&lt;/span&gt;&lt;/h1&gt;" style="ellipse;whiteSpace=wrap;html=1;aspect=fixed;" vertex="1" parent="1">
          <mxGeometry x="1050" y="-275" width="30" height="30" as="geometry" />
        </mxCell>
        <mxCell id="4Yr71cIfXQSUv62_YKkP-33" value="&lt;h1 id=&quot;gen-h1-1-00000001&quot; class=&quot;navigable-headline&quot;&gt;&lt;span style=&quot;font-weight: 400;&quot;&gt;+&lt;/span&gt;&lt;/h1&gt;" style="ellipse;whiteSpace=wrap;html=1;aspect=fixed;" vertex="1" parent="1">
          <mxGeometry x="1200" y="-113.5" width="30" height="30" as="geometry" />
        </mxCell>
        <mxCell id="4Yr71cIfXQSUv62_YKkP-34" value="" style="endArrow=classic;html=1;rounded=0;entryX=0;entryY=0.5;entryDx=0;entryDy=0;" edge="1" parent="1" target="4Yr71cIfXQSUv62_YKkP-33">
          <mxGeometry width="50" height="50" relative="1" as="geometry">
            <mxPoint x="1080" y="-98.92" as="sourcePoint" />
            <mxPoint x="1134" y="-98.92" as="targetPoint" />
          </mxGeometry>
        </mxCell>
      </root>
    </mxGraphModel>
  </diagram>
</mxfile>
